<svg width="37" height="37" viewBox="0 0 37 37" fill="none" xmlns="http://www.w3.org/2000/svg">
<g clip-path="url(#clip0_221_646)">
<path opacity="0.996" fill-rule="evenodd" clip-rule="evenodd" d="M6.88086 0.464844C14.6152 0.464844 22.3496 0.464844 30.084 0.464844C33.6465 1.16797 35.7793 3.30078 36.4824 6.86328C36.4824 14.5977 36.4824 22.332 36.4824 30.0664C35.7793 33.6289 33.6465 35.7617 30.084 36.4648C22.3496 36.4648 14.6152 36.4648 6.88086 36.4648C3.31836 35.7617 1.18555 33.6289 0.482422 30.0664C0.482422 22.332 0.482422 14.5977 0.482422 6.86328C1.18555 3.30078 3.31836 1.16797 6.88086 0.464844ZM10.959 8.76172C11.9409 8.63087 12.6558 9.00584 13.1035 9.88672C13.5431 10.6018 13.965 11.3283 14.3691 12.0664C14.5209 12.5663 14.4975 13.0584 14.2988 13.543C13.7464 14.0735 13.43 14.7181 13.3496 15.4766C13.3591 16.0209 13.5349 16.5013 13.877 16.918C15.9278 18.9688 17.9785 21.0195 20.0293 23.0703C20.736 23.6052 21.5094 23.7225 22.3496 23.4219C22.7137 23.1813 23.0653 22.9234 23.4043 22.6484C24.0613 22.3809 24.6941 22.4278 25.3027 22.7891C26.0293 23.2344 26.7559 23.6797 27.4824 24.125C28.1652 24.6738 28.3645 25.3652 28.0801 26.1992C27.5455 27.5868 26.526 28.2665 25.0215 28.2383C23.6164 28.1273 22.2804 27.764 21.0137 27.1484C16.3561 24.7175 12.735 21.2135 10.1504 16.6367C9.33666 15.1682 8.85622 13.598 8.70898 11.9258C8.68888 10.9894 8.99354 10.1808 9.62305 9.5C10.0636 9.23295 10.5088 8.98686 10.959 8.76172Z" fill="white"/>
</g>
<defs>
<clipPath id="clip0_221_646">
<rect width="36" height="36" fill="white" transform="translate(0.517578 0.5)"/>
</clipPath>
</defs>
</svg>
