<svg width="51" height="50" viewBox="0 0 51 50" fill="none" xmlns="http://www.w3.org/2000/svg">
<path opacity="0.996" fill-rule="evenodd" clip-rule="evenodd" d="M9.55273 0C20.2949 0 31.0371 0 41.7793 0C46.7272 0.976562 49.6895 3.9388 50.666 8.88672C50.666 19.6289 50.666 30.3711 50.666 41.1133C49.6895 46.0612 46.7272 49.0234 41.7793 50C31.0371 50 20.2949 50 9.55273 50C4.60481 49.0234 1.64258 46.0612 0.666016 41.1133C0.666016 30.3711 0.666016 19.6289 0.666016 8.88672C1.64258 3.9388 4.60481 0.976562 9.55273 0ZM15.2168 11.5234C16.5806 11.3417 17.5734 11.8625 18.1953 13.0859C18.8059 14.0791 19.3918 15.0882 19.9531 16.1133C20.1639 16.8075 20.1313 17.4911 19.8555 18.1641C19.0882 18.901 18.6487 19.7962 18.5371 20.8496C18.5503 21.6056 18.7944 22.2729 19.2695 22.8516C22.1179 25.6999 24.9661 28.5481 27.8145 31.3965C28.796 32.1395 29.8702 32.3022 31.0371 31.8848C31.5428 31.5506 32.0311 31.1925 32.502 30.8105C33.4145 30.439 34.2934 30.5041 35.1387 31.0059C36.1478 31.6243 37.1569 32.2429 38.166 32.8613C39.1144 33.6235 39.3911 34.5838 38.9961 35.7422C38.2536 37.6694 36.8376 38.6135 34.748 38.5742C32.7965 38.42 30.941 37.9154 29.1816 37.0605C22.7128 33.6842 17.6835 28.8176 14.0938 22.4609C12.9636 20.4214 12.2963 18.2404 12.0918 15.918C12.0639 14.6175 12.487 13.4944 13.3613 12.5488C13.9731 12.1779 14.5916 11.8361 15.2168 11.5234Z" fill="#191919"/>
</svg>
