<svg width="37" height="36" viewBox="0 0 37 36" fill="none" xmlns="http://www.w3.org/2000/svg">
<rect x="0.875" width="36" height="36" rx="2" fill="white"/>
<g clip-path="url(#clip0_221_55)">
<path opacity="0.975" fill-rule="evenodd" clip-rule="evenodd" d="M28.3203 5.97656C28.5703 5.97656 28.8203 5.97656 29.0703 5.97656C29.9869 6.3252 30.3229 6.98145 30.0781 7.94531C30.0119 8.09349 29.9338 8.23412 29.8438 8.36719C28.3903 10.1408 26.9293 11.9064 25.4609 13.6641C24.4453 12.6797 23.4453 11.6797 22.4609 10.6641C24.2186 9.19568 25.9842 7.73474 27.7578 6.28125C27.9422 6.16575 28.1297 6.06419 28.3203 5.97656Z" fill="#191919"/>
<path opacity="0.957" fill-rule="evenodd" clip-rule="evenodd" d="M21.3359 11.5078C22.4576 12.5513 23.5513 13.6294 24.6172 14.7422C24.2235 15.2846 23.786 15.7924 23.3047 16.2656C23.0652 16.4479 22.7996 16.5807 22.5078 16.6641C22.0535 15.0847 21.0378 14.0691 19.4609 13.6172C19.569 13.3385 19.7018 13.0729 19.8594 12.8203C20.3329 12.3545 20.8251 11.917 21.3359 11.5078Z" fill="#191919"/>
<path opacity="0.987" fill-rule="evenodd" clip-rule="evenodd" d="M9.05469 11.8828C12.3205 11.8672 15.5861 11.8828 18.8516 11.9297C18.462 12.412 18.212 12.9589 18.1016 13.5703C16.0566 13.9199 14.8926 15.123 14.6094 17.1797C14.6037 17.791 14.5724 18.4004 14.5156 19.0078C14.4373 19.3205 14.2966 19.6017 14.0938 19.8516C13.7076 21.0089 14.0904 21.7823 15.2422 22.1719C15.6006 22.2273 15.9444 22.1804 16.2734 22.0312C16.5931 21.7475 16.9681 21.5912 17.3984 21.5625C18.1211 21.5657 18.8399 21.5189 19.5547 21.4219C21.2527 20.9581 22.2449 19.8565 22.5313 18.1172C23.3746 17.883 24.0934 17.4456 24.6875 16.8047C25.5 15.8047 26.3125 14.8047 27.125 13.8047C27.1484 16.8984 27.1563 19.9921 27.1484 23.0859C20.6016 23.0859 14.0547 23.0859 7.50782 23.0859C7.4858 19.8349 7.50923 16.5849 7.57813 13.3359C7.78543 12.5583 8.27761 12.0739 9.05469 11.8828Z" fill="#191919"/>
<path opacity="0.977" fill-rule="evenodd" clip-rule="evenodd" d="M18.2891 14.8828C20.0616 14.9055 21.046 15.7961 21.2422 17.5547C21.1739 18.9347 20.4708 19.7863 19.1328 20.1094C18.3978 20.1522 17.6634 20.1991 16.9297 20.25C16.461 20.3383 16.0392 20.5258 15.6641 20.8125C15.4549 20.8689 15.3298 20.7908 15.2891 20.5781C15.6361 20.0628 15.847 19.4925 15.9219 18.8672C15.9323 18.241 15.9636 17.616 16.0156 16.9922C16.3027 15.7753 17.0605 15.0721 18.2891 14.8828Z" fill="#191919"/>
<path opacity="0.981" fill-rule="evenodd" clip-rule="evenodd" d="M21.3828 29.9766C18.6953 29.9766 16.0078 29.9766 13.3203 29.9766C12.8319 29.6904 12.7303 29.2998 13.0156 28.8047C13.0968 28.7055 13.1983 28.6351 13.3203 28.5938C13.7888 28.5703 14.2575 28.5625 14.7266 28.5703C14.7266 28.0391 14.7266 27.5078 14.7266 26.9766C12.8515 26.9844 10.9765 26.9766 9.10155 26.9531C8.29202 26.7999 7.78421 26.3233 7.57811 25.5234C7.52801 25.1657 7.50457 24.8063 7.5078 24.4453C14.0547 24.4453 20.6015 24.4453 27.1484 24.4453C27.338 25.4952 26.9786 26.2843 26.0703 26.8125C25.9168 26.8688 25.7606 26.9157 25.6016 26.9531C23.711 26.9766 21.8204 26.9844 19.9297 26.9766C19.9297 27.5078 19.9297 28.0391 19.9297 28.5703C20.4143 28.5625 20.8987 28.5703 21.3828 28.5938C21.8462 28.8768 21.9477 29.2597 21.6875 29.7422C21.5785 29.8156 21.4769 29.8937 21.3828 29.9766Z" fill="#191919"/>
</g>
<defs>
<clipPath id="clip0_221_55">
<rect width="24" height="24" fill="white" transform="translate(6.875 6)"/>
</clipPath>
</defs>
</svg>
