<svg width="50" height="50" viewBox="0 0 50 50" fill="none" xmlns="http://www.w3.org/2000/svg">
<rect width="50" height="50" rx="10" fill="#191919"/>
<path fill-rule="evenodd" clip-rule="evenodd" d="M28.375 10.75C28.375 10.6505 28.3355 10.5552 28.2652 10.4848C28.1948 10.4145 28.0995 10.375 28 10.375H17.5C16.406 10.375 15.3568 10.8096 14.5832 11.5832C13.8096 12.3568 13.375 13.406 13.375 14.5V35.5C13.375 36.594 13.8096 37.6432 14.5832 38.4168C15.3568 39.1904 16.406 39.625 17.5 39.625H32.5C33.594 39.625 34.6432 39.1904 35.4168 38.4168C36.1904 37.6432 36.625 36.594 36.625 35.5V20.7205C36.625 20.621 36.5855 20.5257 36.5152 20.4553C36.4448 20.385 36.3495 20.3455 36.25 20.3455H29.5C29.2016 20.3455 28.9155 20.227 28.7045 20.016C28.4935 19.805 28.375 19.5189 28.375 19.2205V10.75ZM29.5 25.375C29.7984 25.375 30.0845 25.4935 30.2955 25.7045C30.5065 25.9155 30.625 26.2016 30.625 26.5C30.625 26.7984 30.5065 27.0845 30.2955 27.2955C30.0845 27.5065 29.7984 27.625 29.5 27.625H20.5C20.2016 27.625 19.9155 27.5065 19.7045 27.2955C19.4935 27.0845 19.375 26.7984 19.375 26.5C19.375 26.2016 19.4935 25.9155 19.7045 25.7045C19.9155 25.4935 20.2016 25.375 20.5 25.375H29.5ZM29.5 31.375C29.7984 31.375 30.0845 31.4935 30.2955 31.7045C30.5065 31.9155 30.625 32.2016 30.625 32.5C30.625 32.7984 30.5065 33.0845 30.2955 33.2955C30.0845 33.5065 29.7984 33.625 29.5 33.625H20.5C20.2016 33.625 19.9155 33.5065 19.7045 33.2955C19.4935 33.0845 19.375 32.7984 19.375 32.5C19.375 32.2016 19.4935 31.9155 19.7045 31.7045C19.9155 31.4935 20.2016 31.375 20.5 31.375H29.5Z" fill="white"/>
<path d="M30.625 11.236C30.625 10.96 30.9145 10.7845 31.129 10.957C31.3105 11.104 31.474 11.275 31.6135 11.47L36.133 17.7655C36.235 17.9095 36.124 18.0955 35.947 18.0955H31C30.9005 18.0955 30.8052 18.056 30.7348 17.9857C30.6645 17.9153 30.625 17.82 30.625 17.7205V11.236Z" fill="white"/>
</svg>
