<svg width="50" height="50" viewBox="0 0 50 50" fill="none" xmlns="http://www.w3.org/2000/svg">
<rect width="50" height="50" rx="10" fill="#191919"/>
<path opacity="0.986" fill-rule="evenodd" clip-rule="evenodd" d="M23.8836 10C24.6134 10 25.3431 10 26.0728 10C30.274 10.6667 33.1064 13.03 34.5702 17.0898C35.2271 19.2546 35.131 21.3835 34.2821 23.4766C33.8493 24.5329 33.3692 25.5681 32.8419 26.582C30.1234 31.0579 27.4062 35.5306 24.6902 40C24.6517 40 24.6134 40 24.5749 40C22.3384 36.154 20.1013 32.3063 17.8634 28.457C16.606 26.1827 15.665 23.7803 15.0406 21.25C14.7091 16.8165 16.4086 13.4669 20.139 11.2012C21.3235 10.5733 22.5717 10.1729 23.8836 10ZM24.6902 14.043C27.389 14.1012 29.2613 15.3903 30.3071 17.9102C31.0274 20.341 30.4993 22.4406 28.7228 24.209C26.7145 25.8347 24.5446 26.0886 22.213 24.9707C20.0071 23.5987 19.0373 21.5968 19.3037 18.9648C19.8078 16.4209 21.296 14.8291 23.7684 14.1895C24.0846 14.1441 24.3918 14.0953 24.6902 14.043Z" fill="white"/>
</svg>
