<svg width="36" height="36" viewBox="0 0 36 36" fill="none" xmlns="http://www.w3.org/2000/svg">
<rect width="36" height="36" rx="4" fill="white"/>
<g clip-path="url(#clip0_221_24)">
<path opacity="0.986" fill-rule="evenodd" clip-rule="evenodd" d="M17.0859 5.97656C17.6797 5.97656 18.2734 5.97656 18.8672 5.97656C22.2855 6.50992 24.5902 8.40054 25.7812 11.6484C26.3157 13.3802 26.2376 15.0834 25.5469 16.7578C25.1947 17.6029 24.804 18.4311 24.375 19.2422C22.163 22.8229 19.9521 26.4011 17.7422 29.9766C17.7109 29.9766 17.6797 29.9766 17.6484 29.9766C15.8287 26.8997 14.0084 23.8216 12.1875 20.7422C11.1644 18.9227 10.3987 17.0008 9.89062 14.9766C9.6209 11.4298 11.0037 8.75007 14.0391 6.9375C15.0028 6.43516 16.0185 6.11485 17.0859 5.97656ZM17.7422 9.21094C19.9381 9.25754 21.4616 10.2888 22.3125 12.3047C22.8986 14.2493 22.4689 15.929 21.0234 17.3438C19.3893 18.6443 17.6237 18.8475 15.7266 17.9531C13.9317 16.8555 13.1426 15.254 13.3594 13.1484C13.7695 11.1133 14.9805 9.83985 16.9922 9.32812C17.2494 9.29184 17.4994 9.25277 17.7422 9.21094Z" fill="#191919"/>
</g>
<defs>
<clipPath id="clip0_221_24">
<rect width="24" height="24" fill="white" transform="translate(6 6)"/>
</clipPath>
</defs>
</svg>
