<svg width="51" height="50" viewBox="0 0 51 50" fill="none" xmlns="http://www.w3.org/2000/svg">
<rect x="0.333984" width="50" height="50" rx="10" fill="#191919"/>
<g clip-path="url(#clip0_158_2245)">
<path opacity="0.991" fill-rule="evenodd" clip-rule="evenodd" d="M13.2754 15.1289C21.2962 15.1198 29.3171 15.1289 37.3379 15.1563C37.5304 15.1931 37.7127 15.2569 37.8848 15.3477C33.904 19.4105 29.8936 23.4482 25.8535 27.4609C25.4883 27.643 25.1237 27.643 24.7598 27.4609C20.7197 23.4482 16.7093 19.4105 12.7285 15.3477C12.912 15.2625 13.0943 15.1896 13.2754 15.1289Z" fill="white"/>
<path opacity="0.985" fill-rule="evenodd" clip-rule="evenodd" d="M11.3066 32.8477C11.3066 27.5977 11.3066 22.3477 11.3066 17.0977C11.3672 16.9171 11.4401 16.7348 11.5254 16.5508C11.5528 16.495 11.5893 16.4858 11.6348 16.5234C14.4519 19.3315 17.2592 22.1479 20.0566 24.9727C17.2592 27.7974 14.4519 30.6138 11.6348 33.4219C11.5893 33.4595 11.5528 33.4504 11.5254 33.3945C11.4401 33.2105 11.3672 33.0282 11.3066 32.8477Z" fill="white"/>
<path opacity="0.985" fill-rule="evenodd" clip-rule="evenodd" d="M39.3066 17.0977C39.3066 22.3477 39.3066 27.5977 39.3066 32.8477C39.246 33.0282 39.1731 33.2105 39.0879 33.3945C39.0604 33.4504 39.024 33.4595 38.9785 33.4219C36.1712 30.6146 33.3639 27.8073 30.5566 25C33.3442 22.1578 36.1515 19.3322 38.9785 16.5234C39.024 16.4858 39.0604 16.495 39.0879 16.5508C39.1731 16.7348 39.246 16.9171 39.3066 17.0977Z" fill="white"/>
<path opacity="0.99" fill-rule="evenodd" clip-rule="evenodd" d="M21.0956 26.1211C21.136 26.1139 21.1725 26.1231 21.2049 26.1484C22.0633 27.025 22.9383 27.8818 23.8299 28.7187C24.8139 29.3385 25.7983 29.3385 26.7831 28.7187C27.6747 27.8818 28.5497 27.025 29.4081 26.1484C29.4445 26.112 29.481 26.112 29.5174 26.1484C32.3361 28.9398 35.1252 31.7562 37.8846 34.5977C37.7125 34.6884 37.5303 34.7523 37.3378 34.7891C29.3169 34.8255 21.2961 34.8255 13.2753 34.7891C13.1171 34.7546 12.9621 34.709 12.8104 34.6523C12.7416 34.6332 12.7234 34.5967 12.7557 34.543C15.5269 31.7262 18.3069 28.9189 21.0956 26.1211Z" fill="white"/>
</g>
<defs>
<clipPath id="clip0_158_2245">
<rect width="28" height="28" fill="white" transform="translate(11.334 11)"/>
</clipPath>
</defs>
</svg>
