<svg width="36" height="36" viewBox="0 0 36 36" fill="none" xmlns="http://www.w3.org/2000/svg">
<rect width="36" height="36" rx="4" fill="white"/>
<g clip-path="url(#clip0_221_10)">
<path opacity="0.991" fill-rule="evenodd" clip-rule="evenodd" d="M7.66406 9.53906C14.5391 9.53125 21.4141 9.53906 28.2891 9.5625C28.4541 9.59406 28.6103 9.64874 28.7578 9.72656C25.3457 13.209 21.9082 16.6699 18.4453 20.1094C18.1322 20.2655 17.8198 20.2655 17.5078 20.1094C14.0449 16.6699 10.6074 13.209 7.19531 9.72656C7.35258 9.65361 7.50883 9.5911 7.66406 9.53906Z" fill="#191919"/>
<path opacity="0.985" fill-rule="evenodd" clip-rule="evenodd" d="M5.97656 24.7265C5.97656 20.2265 5.97656 15.7265 5.97656 11.2265C6.02848 11.0717 6.09098 10.9155 6.16406 10.7577C6.18758 10.7099 6.21883 10.7021 6.25781 10.7343C8.67252 13.1412 11.0788 15.5553 13.4766 17.9765C11.0788 20.3977 8.67252 22.8118 6.25781 25.2187C6.21883 25.2509 6.18758 25.2431 6.16406 25.1952C6.09098 25.0375 6.02848 24.8813 5.97656 24.7265Z" fill="#191919"/>
<path opacity="0.985" fill-rule="evenodd" clip-rule="evenodd" d="M29.9766 11.2265C29.9766 15.7265 29.9766 20.2265 29.9766 24.7265C29.9246 24.8813 29.8621 25.0375 29.7891 25.1952C29.7655 25.2431 29.7343 25.2509 29.6953 25.2187C27.2891 22.8125 24.8828 20.4062 22.4766 17.9999C24.8659 15.5637 27.2722 13.1419 29.6953 10.7343C29.7343 10.7021 29.7655 10.7099 29.7891 10.7577C29.8621 10.9155 29.9246 11.0717 29.9766 11.2265Z" fill="#191919"/>
<path opacity="0.99" fill-rule="evenodd" clip-rule="evenodd" d="M14.3672 18.961C14.4018 18.9549 14.4331 18.9627 14.4609 18.9844C15.1966 19.7358 15.9466 20.4702 16.7109 21.1876C17.5543 21.7188 18.3981 21.7188 19.2422 21.1876C20.0065 20.4702 20.7565 19.7358 21.4922 18.9844C21.5235 18.9532 21.5547 18.9532 21.5859 18.9844C24.002 21.377 26.3926 23.7911 28.7578 26.2266C28.6103 26.3044 28.4541 26.3591 28.2891 26.3907C21.4141 26.422 14.5391 26.422 7.66407 26.3907C7.52848 26.3611 7.39566 26.3221 7.26563 26.2735C7.20668 26.2571 7.19106 26.2258 7.21875 26.1798C9.59409 23.7654 11.9769 21.3591 14.3672 18.961Z" fill="#191919"/>
</g>
<defs>
<clipPath id="clip0_221_10">
<rect width="24" height="24" fill="white" transform="translate(6 6)"/>
</clipPath>
</defs>
</svg>
