<svg width="86" height="42" viewBox="0 0 86 42" fill="none" xmlns="http://www.w3.org/2000/svg">
<path d="M45 1H73C79.6274 1 85 6.37258 85 13V29C85 35.6274 79.6274 41 73 41H45" stroke="white" stroke-width="2"/>
<path d="M65.7071 20.2929C66.0976 20.6834 66.0976 21.3166 65.7071 21.7071L59.3431 28.0711C58.9526 28.4616 58.3195 28.4616 57.9289 28.0711C57.5384 27.6805 57.5384 27.0474 57.9289 26.6569L63.5858 21L57.9289 15.3431C57.5384 14.9526 57.5384 14.3195 57.9289 13.9289C58.3195 13.5384 58.9526 13.5384 59.3431 13.9289L65.7071 20.2929ZM1 22C0.447716 22 0 21.5523 0 21C0 20.4477 0.447716 20 1 20V22ZM65 22H1V20H65V22Z" fill="white"/>
</svg>
