<svg width="86" height="42" viewBox="0 0 86 42" fill="none" xmlns="http://www.w3.org/2000/svg">
<path d="M41 1H13C6.37258 1 1 6.37258 1 13V29C1 35.6274 6.37258 41 13 41H41" stroke="white" stroke-width="2"/>
<path d="M20.2929 20.2929C19.9024 20.6834 19.9024 21.3166 20.2929 21.7071L26.6569 28.0711C27.0474 28.4616 27.6805 28.4616 28.0711 28.0711C28.4616 27.6805 28.4616 27.0474 28.0711 26.6569L22.4142 21L28.0711 15.3431C28.4616 14.9526 28.4616 14.3195 28.0711 13.9289C27.6805 13.5384 27.0474 13.5384 26.6569 13.9289L20.2929 20.2929ZM85 22C85.5523 22 86 21.5523 86 21C86 20.4477 85.5523 20 85 20V22ZM21 22H85V20H21V22Z" fill="white"/>
</svg>
