<svg width="37" height="37" viewBox="0 0 37 37" fill="none" xmlns="http://www.w3.org/2000/svg">
<g clip-path="url(#clip0_221_635)">
<path opacity="0.996" fill-rule="evenodd" clip-rule="evenodd" d="M4.94672 0.464844C14.228 0.464844 23.5092 0.464844 32.7905 0.464844C35.0171 0.957031 36.3764 2.3164 36.8686 4.54297C36.8686 13.8242 36.8686 23.1055 36.8686 32.3867C36.3764 34.6133 35.0171 35.9727 32.7905 36.4648C23.5092 36.4648 14.228 36.4648 4.94672 36.4648C2.72015 35.9727 1.36078 34.6133 0.868591 32.3867C0.868591 23.1055 0.868591 13.8242 0.868591 4.54297C1.36078 2.3164 2.72015 0.957031 4.94672 0.464844ZM28.7827 9.74609C29.7459 9.68963 30.1561 10.135 30.0131 11.082C28.8445 16.2928 27.6491 21.4959 26.4272 26.6914C25.9465 27.2364 25.3958 27.3184 24.7748 26.9375C23.0308 25.7676 21.2965 24.5841 19.5717 23.3867C18.647 24.2293 17.733 25.0848 16.8295 25.9531C16.0361 26.3912 15.5087 26.1686 15.2475 25.2852C14.642 23.4806 14.0444 21.6759 13.4545 19.8711C11.6685 19.4129 9.88722 18.9324 8.11078 18.4297C7.7178 18.2574 7.58889 17.9644 7.72406 17.5508C7.80609 17.4219 7.91156 17.3164 8.04047 17.2344C14.9748 14.7708 21.8889 12.2747 28.7827 9.74609Z" fill="white"/>
<path opacity="0.94" fill-rule="evenodd" clip-rule="evenodd" d="M25.8295 12.7695C26.1444 12.7975 26.2382 12.9616 26.1108 13.2617C22.8779 15.8969 19.6552 18.5453 16.4428 21.207C16.2919 22.2835 16.1513 23.3617 16.0209 24.4414C15.9498 24.5003 15.8678 24.5237 15.7748 24.5117C15.3065 22.9778 14.8026 21.4544 14.2631 19.9414C14.21 19.7443 14.2334 19.5568 14.3334 19.3789C18.1641 17.165 21.9961 14.9619 25.8295 12.7695Z" fill="white"/>
</g>
<defs>
<clipPath id="clip0_221_635">
<rect width="36" height="36" fill="white" transform="translate(0.903748 0.5)"/>
</clipPath>
</defs>
</svg>
