<svg width="37" height="36" viewBox="0 0 37 36" fill="none" xmlns="http://www.w3.org/2000/svg">
<path opacity="0.996" fill-rule="evenodd" clip-rule="evenodd" d="M4.16797 -0.0351562C13.4492 -0.0351562 22.7305 -0.0351562 32.0117 -0.0351562C34.2383 0.457031 35.5977 1.8164 36.0898 4.04297C36.0898 13.3242 36.0898 22.6055 36.0898 31.8867C35.5977 34.1133 34.2383 35.4727 32.0117 35.9648C22.7305 35.9648 13.4492 35.9648 4.16797 35.9648C1.9414 35.4727 0.582031 34.1133 0.0898438 31.8867C0.0898438 22.6055 0.0898438 13.3242 0.0898438 4.04297C0.582031 1.8164 1.9414 0.457031 4.16797 -0.0351562ZM28.0039 9.24609C28.9672 9.18963 29.3773 9.63499 29.2344 10.582C28.0657 15.7928 26.8704 20.9959 25.6484 26.1914C25.1678 26.7364 24.617 26.8184 23.9961 26.4375C22.2521 25.2676 20.5177 24.0841 18.793 22.8867C17.8683 23.7293 16.9542 24.5848 16.0508 25.4531C15.2573 25.8912 14.73 25.6686 14.4688 24.7852C13.8633 22.9806 13.2656 21.1759 12.6758 19.3711C10.8897 18.9129 9.10848 18.4324 7.33203 17.9297C6.93905 17.7574 6.81014 17.4644 6.94531 17.0508C7.02735 16.9219 7.13281 16.8164 7.26172 16.7344C14.1961 14.2708 21.1102 11.7747 28.0039 9.24609Z" fill="white"/>
</svg>
