<svg width="37" height="37" viewBox="0 0 37 37" fill="none" xmlns="http://www.w3.org/2000/svg">
<g clip-path="url(#clip0_221_640)">
<path opacity="0.995" fill-rule="evenodd" clip-rule="evenodd" d="M4.94672 0.464844C14.228 0.464844 23.5092 0.464844 32.7905 0.464844C35.0171 0.957031 36.3764 2.3164 36.8686 4.54297C36.8686 13.8242 36.8686 23.1055 36.8686 32.3867C36.3764 34.6133 35.0171 35.9727 32.7905 36.4648C23.5092 36.4648 14.228 36.4648 4.94672 36.4648C2.72015 35.9727 1.36078 34.6133 0.868591 32.3867C0.868591 23.1055 0.868591 13.8242 0.868591 4.54297C1.36078 2.3164 2.72015 0.957031 4.94672 0.464844ZM17.6733 7.28516C22.5358 7.02644 26.2038 8.97174 28.6772 13.1211C30.7496 17.4703 30.3511 21.5718 27.4819 25.4258C24.817 28.4866 21.4538 29.8108 17.392 29.3984C16.1584 29.2307 14.9865 28.8674 13.8764 28.3086C12.1928 28.7321 10.5053 29.1422 8.8139 29.5391C8.53624 29.6223 8.25499 29.6458 7.97015 29.6094C7.85595 29.5308 7.78563 29.4254 7.75922 29.293C8.16218 27.3604 8.56057 25.4268 8.95453 23.4922C7.02402 19.2623 7.41074 15.2662 10.1147 11.5039C12.0753 9.09971 14.5948 7.69346 17.6733 7.28516Z" fill="white"/>
<path opacity="0.98" fill-rule="evenodd" clip-rule="evenodd" d="M18.0248 9.60547C21.9116 9.43299 24.8062 11.0268 26.7084 14.3867C28.1482 17.5659 27.9139 20.6128 26.0053 23.5273C23.9113 26.2108 21.1574 27.3944 17.7436 27.0781C16.4707 26.8843 15.2754 26.4742 14.1577 25.8477C13.0154 26.1391 11.8669 26.3969 10.7123 26.6211C10.9286 25.4698 11.1629 24.3214 11.4155 23.1758C9.82443 20.3655 9.67207 17.4826 10.9584 14.5273C12.4743 11.6779 14.8298 10.0373 18.0248 9.60547ZM14.9311 13.0508C14.3168 13.4661 13.8363 14.0051 13.4897 14.668C13.3519 15.0293 13.2934 15.4043 13.3139 15.793C13.393 17.076 13.8266 18.2245 14.6147 19.2383C15.4233 20.2344 16.3256 21.1367 17.3217 21.9453C18.4266 22.8141 19.6687 23.4 21.0483 23.7031C22.8142 23.9863 24.0681 23.3183 24.81 21.6992C24.8572 21.3503 24.7284 21.0807 24.4233 20.8906C23.5812 20.6373 22.7375 20.3912 21.892 20.1523C21.4481 20.3494 21.0731 20.6423 20.767 21.0312C20.5257 21.1769 20.2679 21.2238 19.9936 21.1719C18.5261 20.3609 17.2721 19.2945 16.2319 17.9727C15.9975 17.6211 15.9975 17.2695 16.2319 16.918C16.5353 16.6041 16.7579 16.2408 16.8998 15.8281C16.5502 14.9903 16.1869 14.1583 15.81 13.332C15.5718 13.0832 15.2789 12.9895 14.9311 13.0508Z" fill="white"/>
</g>
<defs>
<clipPath id="clip0_221_640">
<rect width="36" height="36" fill="white" transform="translate(0.903748 0.5)"/>
</clipPath>
</defs>
</svg>
