<svg width="37" height="36" viewBox="0 0 37 36" fill="none" xmlns="http://www.w3.org/2000/svg">
<g clip-path="url(#clip0_221_39)">
<path opacity="0.996" fill-rule="evenodd" clip-rule="evenodd" d="M2.30859 -0.0351562C12.9961 -0.0351562 23.6836 -0.0351562 34.3711 -0.0351562C35.3789 0.269531 36.0352 0.925784 36.3398 1.93359C36.3398 12.6211 36.3398 23.3086 36.3398 33.9961C36.0352 35.0039 35.3789 35.6602 34.3711 35.9648C23.6836 35.9648 12.9961 35.9648 2.30859 35.9648C1.30078 35.6602 0.644531 35.0039 0.339844 33.9961C0.339844 23.3086 0.339844 12.6211 0.339844 1.93359C0.644531 0.925784 1.30078 0.269531 2.30859 -0.0351562ZM17.9883 10.0898C20.8065 10.0981 23.619 10.227 26.4258 10.4766C27.7311 10.587 28.61 11.2549 29.0625 12.4805C29.2486 13.2195 29.3658 13.9695 29.4141 14.7305C29.5693 17.1229 29.5459 19.5135 29.3438 21.9023C29.2926 22.7215 29.0816 23.4949 28.7109 24.2227C28.2724 24.8468 27.6747 25.2335 26.918 25.3828C25.9631 25.5369 25.0021 25.6307 24.0352 25.6641C19.8866 25.8688 15.7382 25.8454 11.5898 25.5938C10.6375 25.5797 9.72347 25.3922 8.84766 25.0312C7.81076 24.258 7.30686 23.215 7.33594 21.9023C7.10156 19.2774 7.10156 16.6523 7.33594 14.0273C7.30686 12.7147 7.81076 11.6717 8.84766 10.8984C9.26173 10.6601 9.70702 10.5195 10.1836 10.4766C10.977 10.3682 11.7739 10.2979 12.5742 10.2656C14.3902 10.2035 16.1948 10.1449 17.9883 10.0898Z" fill="white"/>
<path opacity="0.968" fill-rule="evenodd" clip-rule="evenodd" d="M16.0898 14.5898C18.0776 15.6776 20.0464 16.8026 21.9961 17.9648C20.0623 19.1076 18.117 20.2326 16.1602 21.3398C16.0898 19.0903 16.0664 16.8403 16.0898 14.5898Z" fill="white"/>
</g>
<defs>
<clipPath id="clip0_221_39">
<rect width="36" height="36" fill="white" transform="translate(0.375)"/>
</clipPath>
</defs>
</svg>
